<svg xmlns="http://www.w3.org/2000/svg" xmlns:xlink="http://www.w3.org/1999/xlink" viewBox="0 0 629.69 516.55"><defs><style>.cls-1{fill:url(#linear-gradient);}.cls-2{fill:url(#linear-gradient-2);}</style><linearGradient id="linear-gradient" x1="9.92" y1="928.04" x2="8.92" y2="928.04" gradientTransform="matrix(271.53, 271.53, 271.53, -271.53, -254290.17, 249689.64)" gradientUnits="userSpaceOnUse"><stop offset="0" stop-color="#32a0dc"/><stop offset="1" stop-color="#50befa"/></linearGradient><linearGradient id="linear-gradient-2" x1="9.92" y1="928.04" x2="8.92" y2="928.04" gradientTransform="matrix(271.53, 271.53, 271.53, -271.53, -254177.17, 249689.64)" gradientUnits="userSpaceOnUse"><stop offset="0" stop-color="#dc6464"/><stop offset="1" stop-color="#fa8282"/></linearGradient></defs><g id="Layer_2" data-name="Layer 2"><g id="Layer_1-2" data-name="Layer 1"><g id="shape_1_1" data-name="shape 1 1"><path class="cls-1" d="M235.65,9.37a32,32,0,1,1,0,45.26A32,32,0,0,1,235.65,9.37ZM179.08,65.94a32,32,0,1,1,0,45.26A32,32,0,0,1,179.08,65.94Zm-56.57,56.57a32,32,0,1,1,0,45.25A32,32,0,0,1,122.51,122.51ZM65.94,179.08a32,32,0,1,1,0,45.25A32,32,0,0,1,65.94,179.08ZM9.37,235.65a32,32,0,1,1,0,45.25A32,32,0,0,1,9.37,235.65Zm56.57,56.57a32,32,0,1,1,0,45.25A32,32,0,0,1,65.94,292.22ZM348.78,122.51a32,32,0,1,1,0,45.25A32,32,0,0,1,348.78,122.51Zm-56.56,56.57a32,32,0,1,1,0,45.25A32,32,0,0,1,292.22,179.08Zm-56.57,56.57a32,32,0,1,1,0,45.25A32,32,0,0,1,235.65,235.65ZM122.51,348.78a32,32,0,1,1,0,45.26A32,32,0,0,1,122.51,348.78Zm282.84-169.7a32,32,0,1,1,0,45.25A32,32,0,0,1,405.35,179.08ZM179.08,405.35a32,32,0,1,1,0,45.26A32,32,0,0,1,179.08,405.35Zm282.84-169.7a32,32,0,1,1,0,45.25A32,32,0,0,1,461.92,235.65Zm-56.57,56.57a32,32,0,1,1,0,45.25A32,32,0,0,1,405.35,292.22Zm-56.57,56.56a32,32,0,1,1,0,45.26A32,32,0,0,1,348.78,348.78Zm-56.56,56.57a32,32,0,1,1,0,45.26A32,32,0,0,1,292.22,405.35Zm-56.57,56.57a32,32,0,1,1,0,45.26A32,32,0,0,1,235.65,461.92ZM64,258.27q.81,23.76,24.57,24.57l-32,32Q55.76,291.08,32,290.27Zm56.57,56.57q.81,23.76,24.57,24.57l-32,32q-.81-23.76-24.57-24.57Zm282.84-169.7q.81,23.76,24.57,24.57l-32,32q-.81-23.76-24.57-24.57ZM177.14,371.41Q178,395.17,201.71,396l-32,32q-.81-23.76-24.57-24.57ZM460,201.71q.81,23.76,24.57,24.56l-32,32q-.81-23.74-24.57-24.56ZM233.71,428q.79,23.76,24.56,24.57l-32,32q-.81-23.76-24.56-24.57ZM258.27,64q-23.76.81-24.56,24.57l-32-32q23.74-.81,24.56-24.57Zm-56.56,56.57q-23.76.81-24.57,24.57l-32-32q23.76-.81,24.57-24.57Zm-56.57,56.57q-23.76.81-24.57,24.57l-32-32q23.76-.81,24.57-24.57ZM88.57,233.71q-23.76.81-24.57,24.56l-32-32q23.76-.81,24.57-24.56Zm282.84-56.57q-23.76.81-24.57,24.57l-32-32q23.76-.81,24.57-24.57Zm-56.57,56.57q-23.76.81-24.57,24.56l-32-32q23.76-.81,24.57-24.56Zm169.71,56.56q-23.76.81-24.57,24.57l-32-32q23.76-.81,24.57-24.57ZM428,346.84q-23.76.81-24.57,24.57l-32-32q23.76-.81,24.57-24.57Zm-56.57,56.57q-23.76.81-24.57,24.57l-32-32q23.76-.81,24.57-24.57ZM314.84,460q-23.76.81-24.57,24.57l-32-32Q282,451.74,282.84,428Z"/></g><g id="shape_1_2" data-name="shape 1 2"><path class="cls-2" d="M348.78,9.37a32,32,0,1,1,0,45.26A32,32,0,0,1,348.78,9.37ZM292.22,65.94a32,32,0,1,1,0,45.26A32,32,0,0,1,292.22,65.94Zm-56.57,56.57a32,32,0,1,1,0,45.25A32,32,0,0,1,235.65,122.51Zm-56.57,56.57a32,32,0,1,1,0,45.25A32,32,0,0,1,179.08,179.08Zm-56.57,56.57a32,32,0,1,1,0,45.25A32,32,0,0,1,122.51,235.65ZM405.35,65.94a32,32,0,1,1,0,45.26A32,32,0,0,1,405.35,65.94ZM179.08,292.22a32,32,0,1,1,0,45.25A32,32,0,0,1,179.08,292.22ZM461.92,122.51a32,32,0,1,1,0,45.25A32,32,0,0,1,461.92,122.51ZM348.78,235.65a32,32,0,1,1,0,45.25A32,32,0,0,1,348.78,235.65Zm-56.56,56.57a32,32,0,1,1,0,45.25A32,32,0,0,1,292.22,292.22Zm-56.57,56.56a32,32,0,1,1,0,45.26A32,32,0,0,1,235.65,348.78Zm282.84-169.7a32,32,0,1,1,0,45.25A32,32,0,0,1,518.49,179.08Zm56.57,56.57a32,32,0,1,1,0,45.25A32,32,0,0,1,575.06,235.65Zm-56.57,56.57a32,32,0,1,1,0,45.25A32,32,0,0,1,518.49,292.22Zm-56.57,56.56a32,32,0,1,1,0,45.26A32,32,0,0,1,461.92,348.78Zm-56.57,56.57a32,32,0,1,1,0,45.26A32,32,0,0,1,405.35,405.35Zm-56.57,56.57a32,32,0,1,1,0,45.26A32,32,0,0,1,348.78,461.92ZM403.41,32q.81,23.76,24.57,24.57l-32,32Q395.17,64.81,371.41,64ZM177.14,258.27Q178,282,201.71,282.84l-32,32q-.81-23.76-24.57-24.57ZM460,88.57q.81,23.76,24.57,24.57l-32,32q-.81-23.76-24.57-24.57ZM233.71,314.84q.79,23.76,24.56,24.57l-32,32q-.81-23.76-24.56-24.57Zm282.84-169.7q.81,23.76,24.57,24.57l-32,32q-.81-23.76-24.57-24.57Zm56.57,56.57q.81,23.76,24.57,24.56l-32,32q-.81-23.74-24.57-24.56ZM371.41,64q-23.76.81-24.57,24.57l-32-32Q338.6,55.76,339.41,32Zm-56.57,56.57q-23.76.81-24.57,24.57l-32-32q23.76-.81,24.57-24.57Zm-56.57,56.57q-23.76.81-24.56,24.57l-32-32q23.74-.81,24.56-24.57Zm-56.56,56.57q-23.76.81-24.57,24.56l-32-32q23.76-.81,24.57-24.56Zm169.7,56.56q-23.76.81-24.57,24.57l-32-32q23.76-.81,24.57-24.57Zm-56.57,56.57q-23.76.81-24.57,24.57l-32-32q23.76-.81,24.57-24.57Zm282.85-56.57q-23.76.81-24.57,24.57l-32-32q23.76-.81,24.57-24.57Zm-56.57,56.57q-23.76.81-24.57,24.57l-32-32q23.76-.81,24.57-24.57Zm-56.57,56.57Q460.79,404.22,460,428l-32-32q23.76-.81,24.57-24.57ZM428,460q-23.76.81-24.57,24.57l-32-32Q395.17,451.74,396,428Z"/></g></g></g></svg>