<svg width="630" height="517" viewBox="0 0 630 517" fill="none" xmlns="http://www.w3.org/2000/svg">
<g clip-path="url(#clip0_1_512)">
<path d="M235.65 9.37001C240.126 4.89546 245.827 1.84849 252.035 0.614351C258.242 -0.619784 264.676 0.0143495 270.522 2.43657C276.369 4.85879 281.367 8.96031 284.882 14.2225C288.398 19.4847 290.275 25.6713 290.275 32C290.275 38.3287 288.398 44.5153 284.882 49.7775C281.367 55.0397 276.369 59.1412 270.522 61.5635C264.676 63.9857 258.242 64.6198 252.035 63.3857C245.827 62.1515 240.126 59.1046 235.65 54.63C232.678 51.6584 230.32 48.1305 228.711 44.2476C227.103 40.3647 226.275 36.2029 226.275 32C226.275 27.7971 227.103 23.6354 228.711 19.7525C230.32 15.8696 232.678 12.3416 235.65 9.37001V9.37001ZM179.08 65.94C183.556 61.4655 189.257 58.4185 195.465 57.1844C201.672 55.9502 208.106 56.5843 213.952 59.0066C219.799 61.4288 224.797 65.5303 228.312 70.7925C231.828 76.0547 233.705 82.2413 233.705 88.57C233.705 94.8987 231.828 101.085 228.312 106.348C224.797 111.61 219.799 115.711 213.952 118.133C208.106 120.556 201.672 121.19 195.465 119.956C189.257 118.722 183.556 115.675 179.08 111.2C176.108 108.228 173.75 104.7 172.141 100.818C170.533 96.9347 169.705 92.7729 169.705 88.57C169.705 84.3671 170.533 80.2054 172.141 76.3225C173.75 72.4396 176.108 68.9116 179.08 65.94V65.94ZM122.51 122.51C126.985 118.034 132.687 114.986 138.894 113.75C145.102 112.515 151.537 113.148 157.384 115.57C163.232 117.992 168.23 122.094 171.746 127.356C175.263 132.619 177.14 138.806 177.14 145.135C177.14 151.464 175.263 157.651 171.746 162.914C168.23 168.176 163.232 172.278 157.384 174.7C151.537 177.122 145.102 177.755 138.894 176.52C132.687 175.284 126.985 172.236 122.51 167.76C116.51 161.759 113.14 153.621 113.14 145.135C113.14 136.649 116.51 128.511 122.51 122.51ZM65.94 179.08C70.4151 174.604 76.1169 171.556 82.3245 170.32C88.5321 169.085 94.9665 169.718 100.814 172.14C106.662 174.562 111.66 178.664 115.176 183.926C118.693 189.189 120.57 195.376 120.57 201.705C120.57 208.034 118.693 214.221 115.176 219.484C111.66 224.746 106.662 228.848 100.814 231.27C94.9665 233.692 88.5321 234.325 82.3245 233.09C76.1169 231.854 70.4151 228.806 65.94 224.33C59.9404 218.329 56.5699 210.191 56.5699 201.705C56.5699 193.219 59.9404 185.081 65.94 179.08ZM9.37004 235.65C13.8451 231.174 19.5469 228.126 25.7545 226.89C31.9621 225.655 38.3965 226.288 44.2442 228.71C50.0918 231.132 55.0899 235.234 58.6064 240.496C62.1229 245.759 63.9999 251.946 63.9999 258.275C63.9999 264.604 62.1229 270.791 58.6064 276.054C55.0899 281.316 50.0918 285.418 44.2442 287.84C38.3965 290.262 31.9621 290.895 25.7545 289.66C19.5469 288.424 13.8451 285.376 9.37004 280.9C3.37036 274.899 -0.00012207 266.761 -0.00012207 258.275C-0.00012207 249.789 3.37036 241.651 9.37004 235.65V235.65ZM65.94 292.22C70.4151 287.744 76.1169 284.696 82.3245 283.46C88.5321 282.225 94.9665 282.858 100.814 285.28C106.662 287.702 111.66 291.804 115.176 297.066C118.693 302.329 120.57 308.516 120.57 314.845C120.57 321.174 118.693 327.361 115.176 332.624C111.66 337.886 106.662 341.988 100.814 344.41C94.9665 346.832 88.5321 347.465 82.3245 346.23C76.1169 344.994 70.4151 341.946 65.94 337.47C59.9404 331.469 56.5699 323.331 56.5699 314.845C56.5699 306.359 59.9404 298.221 65.94 292.22ZM348.78 122.51C353.255 118.034 358.957 114.986 365.164 113.75C371.372 112.515 377.807 113.148 383.654 115.57C389.502 117.992 394.5 122.094 398.016 127.356C401.533 132.619 403.41 138.806 403.41 145.135C403.41 151.464 401.533 157.651 398.016 162.914C394.5 168.176 389.502 172.278 383.654 174.7C377.807 177.122 371.372 177.755 365.164 176.52C358.957 175.284 353.255 172.236 348.78 167.76C342.78 161.759 339.41 153.621 339.41 145.135C339.41 136.649 342.78 128.511 348.78 122.51V122.51ZM292.22 179.08C296.695 174.604 302.397 171.556 308.604 170.32C314.812 169.085 321.247 169.718 327.094 172.14C332.942 174.562 337.94 178.664 341.456 183.926C344.973 189.189 346.85 195.376 346.85 201.705C346.85 208.034 344.973 214.221 341.456 219.484C337.94 224.746 332.942 228.848 327.094 231.27C321.247 233.692 314.812 234.325 308.604 233.09C302.397 231.854 296.695 228.806 292.22 224.33C286.22 218.329 282.85 210.191 282.85 201.705C282.85 193.219 286.22 185.081 292.22 179.08V179.08ZM235.65 235.65C240.125 231.174 245.827 228.126 252.034 226.89C258.242 225.655 264.677 226.288 270.524 228.71C276.372 231.132 281.37 235.234 284.886 240.496C288.403 245.759 290.28 251.946 290.28 258.275C290.28 264.604 288.403 270.791 284.886 276.054C281.37 281.316 276.372 285.418 270.524 287.84C264.677 290.262 258.242 290.895 252.034 289.66C245.827 288.424 240.125 285.376 235.65 280.9C229.65 274.899 226.28 266.761 226.28 258.275C226.28 249.789 229.65 241.651 235.65 235.65V235.65ZM122.51 348.78C126.986 344.305 132.687 341.258 138.895 340.024C145.102 338.79 151.536 339.424 157.382 341.847C163.229 344.269 168.227 348.37 171.742 353.633C175.258 358.895 177.135 365.081 177.135 371.41C177.135 377.739 175.258 383.925 171.742 389.188C168.227 394.45 163.229 398.551 157.382 400.973C151.536 403.396 145.102 404.03 138.895 402.796C132.687 401.562 126.986 398.515 122.51 394.04C119.538 391.068 117.18 387.54 115.571 383.658C113.963 379.775 113.135 375.613 113.135 371.41C113.135 367.207 113.963 363.045 115.571 359.162C117.18 355.28 119.538 351.752 122.51 348.78ZM405.35 179.08C409.825 174.604 415.527 171.556 421.734 170.32C427.942 169.085 434.377 169.718 440.224 172.14C446.072 174.562 451.07 178.664 454.586 183.926C458.103 189.189 459.98 195.376 459.98 201.705C459.98 208.034 458.103 214.221 454.586 219.484C451.07 224.746 446.072 228.848 440.224 231.27C434.377 233.692 427.942 234.325 421.734 233.09C415.527 231.854 409.825 228.806 405.35 224.33C399.35 218.329 395.98 210.191 395.98 201.705C395.98 193.219 399.35 185.081 405.35 179.08V179.08ZM179.08 405.35C183.556 400.875 189.257 397.828 195.465 396.594C201.672 395.36 208.106 395.994 213.952 398.417C219.799 400.839 224.797 404.94 228.312 410.203C231.828 415.465 233.705 421.651 233.705 427.98C233.705 434.309 231.828 440.495 228.312 445.757C224.797 451.02 219.799 455.121 213.952 457.543C208.106 459.966 201.672 460.6 195.465 459.366C189.257 458.132 183.556 455.085 179.08 450.61C176.108 447.638 173.75 444.11 172.141 440.228C170.533 436.345 169.705 432.183 169.705 427.98C169.705 423.777 170.533 419.615 172.141 415.732C173.75 411.85 176.108 408.322 179.08 405.35V405.35ZM461.92 235.65C466.395 231.174 472.097 228.126 478.304 226.89C484.512 225.655 490.947 226.288 496.794 228.71C502.642 231.132 507.64 235.234 511.156 240.496C514.673 245.759 516.55 251.946 516.55 258.275C516.55 264.604 514.673 270.791 511.156 276.054C507.64 281.316 502.642 285.418 496.794 287.84C490.947 290.262 484.512 290.895 478.304 289.66C472.097 288.424 466.395 285.376 461.92 280.9C455.92 274.899 452.55 266.761 452.55 258.275C452.55 249.789 455.92 241.651 461.92 235.65V235.65ZM405.35 292.22C409.825 287.744 415.527 284.696 421.734 283.46C427.942 282.225 434.377 282.858 440.224 285.28C446.072 287.702 451.07 291.804 454.586 297.066C458.103 302.329 459.98 308.516 459.98 314.845C459.98 321.174 458.103 327.361 454.586 332.624C451.07 337.886 446.072 341.988 440.224 344.41C434.377 346.832 427.942 347.465 421.734 346.23C415.527 344.994 409.825 341.946 405.35 337.47C399.35 331.469 395.98 323.331 395.98 314.845C395.98 306.359 399.35 298.221 405.35 292.22V292.22ZM348.78 348.78C353.256 344.305 358.957 341.258 365.165 340.024C371.372 338.79 377.806 339.424 383.652 341.847C389.499 344.269 394.497 348.37 398.012 353.633C401.528 358.895 403.405 365.081 403.405 371.41C403.405 377.739 401.528 383.925 398.012 389.188C394.497 394.45 389.499 398.551 383.652 400.973C377.806 403.396 371.372 404.03 365.165 402.796C358.957 401.562 353.256 398.515 348.78 394.04C345.808 391.068 343.45 387.54 341.841 383.658C340.233 379.775 339.405 375.613 339.405 371.41C339.405 367.207 340.233 363.045 341.841 359.162C343.45 355.28 345.808 351.752 348.78 348.78V348.78ZM292.22 405.35C296.696 400.875 302.397 397.828 308.605 396.594C314.812 395.36 321.246 395.994 327.092 398.417C332.939 400.839 337.937 404.94 341.452 410.203C344.968 415.465 346.845 421.651 346.845 427.98C346.845 434.309 344.968 440.495 341.452 445.757C337.937 451.02 332.939 455.121 327.092 457.543C321.246 459.966 314.812 460.6 308.605 459.366C302.397 458.132 296.696 455.085 292.22 450.61C289.248 447.638 286.89 444.11 285.281 440.228C283.673 436.345 282.845 432.183 282.845 427.98C282.845 423.777 283.673 419.615 285.281 415.732C286.89 411.85 289.248 408.322 292.22 405.35V405.35ZM235.65 461.92C240.126 457.445 245.827 454.398 252.035 453.164C258.242 451.93 264.676 452.564 270.522 454.987C276.369 457.409 281.367 461.51 284.882 466.773C288.398 472.035 290.275 478.221 290.275 484.55C290.275 490.879 288.398 497.065 284.882 502.327C281.367 507.59 276.369 511.691 270.522 514.113C264.676 516.536 258.242 517.17 252.035 515.936C245.827 514.702 240.126 511.655 235.65 507.18C232.678 504.208 230.32 500.68 228.711 496.798C227.103 492.915 226.275 488.753 226.275 484.55C226.275 480.347 227.103 476.185 228.711 472.302C230.32 468.42 232.678 464.892 235.65 461.92V461.92ZM64 258.27C64.54 274.11 72.73 282.3 88.57 282.84L56.57 314.84C56.03 299 47.84 290.81 32 290.27L64 258.27ZM120.57 314.84C121.11 330.68 129.3 338.87 145.14 339.41L113.14 371.41C112.6 355.57 104.41 347.38 88.57 346.84L120.57 314.84ZM403.41 145.14C403.95 160.98 412.14 169.17 427.98 169.71L395.98 201.71C395.44 185.87 387.25 177.68 371.41 177.14L403.41 145.14ZM177.14 371.41C177.713 387.25 185.903 395.447 201.71 396L169.71 428C169.17 412.16 160.98 403.97 145.14 403.43L177.14 371.41ZM460 201.71C460.54 217.55 468.73 225.737 484.57 226.27L452.57 258.27C452.03 242.443 443.84 234.257 428 233.71L460 201.71ZM233.71 428C234.237 443.84 242.423 452.03 258.27 452.57L226.27 484.57C225.73 468.73 217.543 460.54 201.71 460L233.71 428ZM258.27 64C242.43 64.54 234.243 72.73 233.71 88.57L201.71 56.57C217.537 56.03 225.723 47.84 226.27 32L258.27 64ZM201.71 120.57C185.87 121.11 177.68 129.3 177.14 145.14L145.14 113.14C160.98 112.6 169.17 104.41 169.71 88.57L201.71 120.57ZM145.14 177.14C129.3 177.68 121.11 185.87 120.57 201.71L88.57 169.71C104.41 169.17 112.6 160.98 113.14 145.14L145.14 177.14ZM88.57 233.71C72.73 234.25 64.54 242.437 64 258.27L32 226.27C47.84 225.73 56.03 217.543 56.57 201.71L88.57 233.71ZM371.41 177.14C355.57 177.68 347.38 185.87 346.84 201.71L314.84 169.71C330.68 169.17 338.87 160.98 339.41 145.14L371.41 177.14ZM314.84 233.71C299 234.25 290.81 242.437 290.27 258.27L258.27 226.27C274.11 225.73 282.3 217.543 282.84 201.71L314.84 233.71ZM484.55 290.27C468.71 290.81 460.52 299 459.98 314.84L427.98 282.84C443.82 282.3 452.01 274.11 452.55 258.27L484.55 290.27ZM428 346.84C412.16 347.38 403.97 355.57 403.43 371.41L371.43 339.41C387.27 338.87 395.46 330.68 396 314.84L428 346.84ZM371.43 403.41C355.59 403.95 347.4 412.14 346.86 427.98L314.86 395.98C330.7 395.44 338.89 387.25 339.43 371.41L371.43 403.41ZM314.84 460C299 460.54 290.81 468.73 290.27 484.57L258.27 452.57C274.09 452.017 282.28 443.827 282.84 428L314.84 460Z" fill="url(#paint0_linear_1_512)"/>
<path d="M348.78 9.37001C353.256 4.89546 358.958 1.84849 365.165 0.614351C371.372 -0.619784 377.806 0.0143495 383.652 2.43657C389.499 4.85879 394.497 8.96031 398.012 14.2225C401.528 19.4847 403.405 25.6713 403.405 32C403.405 38.3287 401.528 44.5153 398.012 49.7775C394.497 55.0397 389.499 59.1412 383.652 61.5635C377.806 63.9857 371.372 64.6198 365.165 63.3857C358.958 62.1515 353.256 59.1046 348.78 54.63C345.808 51.6584 343.45 48.1305 341.841 44.2476C340.233 40.3647 339.405 36.2029 339.405 32C339.405 27.7971 340.233 23.6354 341.841 19.7525C343.45 15.8696 345.808 12.3416 348.78 9.37001V9.37001ZM292.22 65.94C296.696 61.4655 302.398 58.4185 308.605 57.1844C314.812 55.9502 321.246 56.5843 327.092 59.0066C332.939 61.4288 337.937 65.5303 341.452 70.7925C344.968 76.0547 346.845 82.2413 346.845 88.57C346.845 94.8987 344.968 101.085 341.452 106.348C337.937 111.61 332.939 115.711 327.092 118.133C321.246 120.556 314.812 121.19 308.605 119.956C302.398 118.722 296.696 115.675 292.22 111.2C289.248 108.228 286.89 104.7 285.281 100.818C283.673 96.9347 282.845 92.7729 282.845 88.57C282.845 84.3671 283.673 80.2054 285.281 76.3225C286.89 72.4396 289.248 68.9116 292.22 65.94V65.94ZM235.65 122.51C240.125 118.034 245.827 114.986 252.034 113.75C258.242 112.515 264.677 113.148 270.524 115.57C276.372 117.992 281.37 122.094 284.886 127.356C288.403 132.619 290.28 138.806 290.28 145.135C290.28 151.464 288.403 157.651 284.886 162.914C281.37 168.176 276.372 172.278 270.524 174.7C264.677 177.122 258.242 177.755 252.034 176.52C245.827 175.284 240.125 172.236 235.65 167.76C229.65 161.759 226.28 153.621 226.28 145.135C226.28 136.649 229.65 128.511 235.65 122.51V122.51ZM179.08 179.08C183.555 174.604 189.257 171.556 195.464 170.32C201.672 169.085 208.107 169.718 213.954 172.14C219.802 174.562 224.8 178.664 228.316 183.926C231.833 189.189 233.71 195.376 233.71 201.705C233.71 208.034 231.833 214.221 228.316 219.484C224.8 224.746 219.802 228.848 213.954 231.27C208.107 233.692 201.672 234.325 195.464 233.09C189.257 231.854 183.555 228.806 179.08 224.33C173.08 218.329 169.71 210.191 169.71 201.705C169.71 193.219 173.08 185.081 179.08 179.08V179.08ZM122.51 235.65C126.985 231.174 132.687 228.126 138.894 226.89C145.102 225.655 151.537 226.288 157.384 228.71C163.232 231.132 168.23 235.234 171.746 240.496C175.263 245.759 177.14 251.946 177.14 258.275C177.14 264.604 175.263 270.791 171.746 276.054C168.23 281.316 163.232 285.418 157.384 287.84C151.537 290.262 145.102 290.895 138.894 289.66C132.687 288.424 126.985 285.376 122.51 280.9C116.51 274.899 113.14 266.761 113.14 258.275C113.14 249.789 116.51 241.651 122.51 235.65V235.65ZM405.35 65.94C409.826 61.4655 415.527 58.4185 421.735 57.1844C427.942 55.9502 434.376 56.5843 440.222 59.0066C446.069 61.4288 451.067 65.5303 454.582 70.7925C458.098 76.0547 459.975 82.2413 459.975 88.57C459.975 94.8987 458.098 101.085 454.582 106.348C451.067 111.61 446.069 115.711 440.222 118.133C434.376 120.556 427.942 121.19 421.735 119.956C415.527 118.722 409.826 115.675 405.35 111.2C402.378 108.228 400.02 104.7 398.411 100.818C396.803 96.9347 395.975 92.7729 395.975 88.57C395.975 84.3671 396.803 80.2054 398.411 76.3225C400.02 72.4396 402.378 68.9116 405.35 65.94V65.94ZM179.08 292.22C183.555 287.744 189.257 284.696 195.464 283.46C201.672 282.225 208.107 282.858 213.954 285.28C219.802 287.702 224.8 291.804 228.316 297.066C231.833 302.329 233.71 308.516 233.71 314.845C233.71 321.174 231.833 327.361 228.316 332.624C224.8 337.886 219.802 341.988 213.954 344.41C208.107 346.832 201.672 347.465 195.464 346.23C189.257 344.994 183.555 341.946 179.08 337.47C173.08 331.469 169.71 323.331 169.71 314.845C169.71 306.359 173.08 298.221 179.08 292.22ZM461.92 122.51C466.395 118.034 472.097 114.986 478.305 113.75C484.512 112.515 490.947 113.148 496.794 115.57C502.642 117.992 507.64 122.094 511.156 127.356C514.673 132.619 516.55 138.806 516.55 145.135C516.55 151.464 514.673 157.651 511.156 162.914C507.64 168.176 502.642 172.278 496.794 174.7C490.947 177.122 484.512 177.755 478.305 176.52C472.097 175.284 466.395 172.236 461.92 167.76C455.92 161.759 452.55 153.621 452.55 145.135C452.55 136.649 455.92 128.511 461.92 122.51V122.51ZM348.78 235.65C353.255 231.174 358.957 228.126 365.164 226.89C371.372 225.655 377.807 226.288 383.654 228.71C389.502 231.132 394.5 235.234 398.016 240.496C401.533 245.759 403.41 251.946 403.41 258.275C403.41 264.604 401.533 270.791 398.016 276.054C394.5 281.316 389.502 285.418 383.654 287.84C377.807 290.262 371.372 290.895 365.164 289.66C358.957 288.424 353.255 285.376 348.78 280.9C342.78 274.899 339.41 266.761 339.41 258.275C339.41 249.789 342.78 241.651 348.78 235.65V235.65ZM292.22 292.22C296.695 287.744 302.397 284.696 308.604 283.46C314.812 282.225 321.247 282.858 327.094 285.28C332.942 287.702 337.94 291.804 341.456 297.066C344.973 302.329 346.85 308.516 346.85 314.845C346.85 321.174 344.973 327.361 341.456 332.624C337.94 337.886 332.942 341.988 327.094 344.41C321.247 346.832 314.812 347.465 308.604 346.23C302.397 344.994 296.695 341.946 292.22 337.47C286.22 331.469 282.85 323.331 282.85 314.845C282.85 306.359 286.22 298.221 292.22 292.22V292.22ZM235.65 348.78C240.126 344.305 245.828 341.258 252.035 340.024C258.242 338.79 264.676 339.424 270.522 341.847C276.369 344.269 281.367 348.37 284.882 353.633C288.398 358.895 290.275 365.081 290.275 371.41C290.275 377.739 288.398 383.925 284.882 389.188C281.367 394.45 276.369 398.551 270.522 400.973C264.676 403.396 258.242 404.03 252.035 402.796C245.828 401.562 240.126 398.515 235.65 394.04C232.678 391.068 230.32 387.54 228.711 383.658C227.103 379.775 226.275 375.613 226.275 371.41C226.275 367.207 227.103 363.045 228.711 359.162C230.32 355.28 232.678 351.752 235.65 348.78V348.78ZM518.49 179.08C522.965 174.604 528.667 171.556 534.875 170.32C541.082 169.085 547.517 169.718 553.364 172.14C559.212 174.562 564.21 178.664 567.726 183.926C571.243 189.189 573.12 195.376 573.12 201.705C573.12 208.034 571.243 214.221 567.726 219.484C564.21 224.746 559.212 228.848 553.364 231.27C547.517 233.692 541.082 234.325 534.875 233.09C528.667 231.854 522.965 228.806 518.49 224.33C512.49 218.329 509.12 210.191 509.12 201.705C509.12 193.219 512.49 185.081 518.49 179.08ZM575.06 235.65C579.535 231.174 585.237 228.126 591.445 226.89C597.652 225.655 604.087 226.288 609.934 228.71C615.782 231.132 620.78 235.234 624.296 240.496C627.813 245.759 629.69 251.946 629.69 258.275C629.69 264.604 627.813 270.791 624.296 276.054C620.78 281.316 615.782 285.418 609.934 287.84C604.087 290.262 597.652 290.895 591.445 289.66C585.237 288.424 579.535 285.376 575.06 280.9C569.06 274.899 565.69 266.761 565.69 258.275C565.69 249.789 569.06 241.651 575.06 235.65V235.65ZM518.49 292.22C522.965 287.744 528.667 284.696 534.875 283.46C541.082 282.225 547.517 282.858 553.364 285.28C559.212 287.702 564.21 291.804 567.726 297.066C571.243 302.329 573.12 308.516 573.12 314.845C573.12 321.174 571.243 327.361 567.726 332.624C564.21 337.886 559.212 341.988 553.364 344.41C547.517 346.832 541.082 347.465 534.875 346.23C528.667 344.994 522.965 341.946 518.49 337.47C512.49 331.469 509.12 323.331 509.12 314.845C509.12 306.359 512.49 298.221 518.49 292.22ZM461.92 348.78C466.396 344.305 472.097 341.258 478.305 340.024C484.512 338.79 490.946 339.424 496.792 341.847C502.639 344.269 507.637 348.37 511.152 353.633C514.668 358.895 516.545 365.081 516.545 371.41C516.545 377.739 514.668 383.925 511.152 389.188C507.637 394.45 502.639 398.551 496.792 400.973C490.946 403.396 484.512 404.03 478.305 402.796C472.097 401.562 466.396 398.515 461.92 394.04C458.948 391.068 456.59 387.54 454.981 383.658C453.373 379.775 452.545 375.613 452.545 371.41C452.545 367.207 453.373 363.045 454.981 359.162C456.59 355.28 458.948 351.752 461.92 348.78V348.78ZM405.35 405.35C409.826 400.875 415.527 397.828 421.735 396.594C427.942 395.36 434.376 395.994 440.222 398.417C446.069 400.839 451.067 404.94 454.582 410.203C458.098 415.465 459.975 421.651 459.975 427.98C459.975 434.309 458.098 440.495 454.582 445.757C451.067 451.02 446.069 455.121 440.222 457.543C434.376 459.966 427.942 460.6 421.735 459.366C415.527 458.132 409.826 455.085 405.35 450.61C402.378 447.638 400.02 444.11 398.411 440.228C396.803 436.345 395.975 432.183 395.975 427.98C395.975 423.777 396.803 419.615 398.411 415.732C400.02 411.85 402.378 408.322 405.35 405.35ZM348.78 461.92C353.256 457.445 358.958 454.398 365.165 453.164C371.372 451.93 377.806 452.564 383.652 454.987C389.499 457.409 394.497 461.51 398.012 466.773C401.528 472.035 403.405 478.221 403.405 484.55C403.405 490.879 401.528 497.065 398.012 502.327C394.497 507.59 389.499 511.691 383.652 514.113C377.806 516.536 371.372 517.17 365.165 515.936C358.958 514.702 353.256 511.655 348.78 507.18C345.808 504.208 343.45 500.68 341.841 496.798C340.233 492.915 339.405 488.753 339.405 484.55C339.405 480.347 340.233 476.185 341.841 472.302C343.45 468.42 345.808 464.892 348.78 461.92V461.92ZM403.41 32C403.95 47.84 412.14 56.03 427.98 56.57L395.98 88.57C395.44 72.73 387.25 64.54 371.41 64L403.41 32ZM177.14 258.27C177.713 274.09 185.903 282.28 201.71 282.84L169.71 314.84C169.17 299 160.98 290.81 145.14 290.27L177.14 258.27ZM460 88.57C460.54 104.41 468.73 112.6 484.57 113.14L452.57 145.14C452.03 129.3 443.84 121.11 428 120.57L460 88.57ZM233.71 314.84C234.237 330.68 242.423 338.87 258.27 339.41L226.27 371.41C225.73 355.57 217.543 347.38 201.71 346.84L233.71 314.84ZM516.55 145.14C517.09 160.98 525.28 169.17 541.12 169.71L509.12 201.71C508.58 185.87 500.39 177.68 484.55 177.14L516.55 145.14ZM573.12 201.71C573.66 217.55 581.85 225.737 597.69 226.27L565.69 258.27C565.15 242.443 556.96 234.257 541.12 233.71L573.12 201.71ZM371.41 64C355.57 64.54 347.38 72.73 346.84 88.57L314.84 56.57C330.68 56.03 338.87 47.84 339.41 32L371.41 64ZM314.84 120.57C299 121.11 290.81 129.3 290.27 145.14L258.27 113.14C274.11 112.6 282.3 104.41 282.84 88.57L314.84 120.57ZM258.27 177.14C242.43 177.68 234.243 185.87 233.71 201.71L201.71 169.71C217.537 169.17 225.723 160.98 226.27 145.14L258.27 177.14ZM201.71 233.71C185.87 234.25 177.68 242.437 177.14 258.27L145.14 226.27C160.98 225.73 169.17 217.543 169.71 201.71L201.71 233.71ZM371.41 290.27C355.57 290.81 347.38 299 346.84 314.84L314.84 282.84C330.68 282.3 338.87 274.11 339.41 258.27L371.41 290.27ZM314.84 346.84C299 347.38 290.81 355.57 290.27 371.41L258.27 339.41C274.11 338.87 282.3 330.68 282.84 314.84L314.84 346.84ZM597.69 290.27C581.85 290.81 573.66 299 573.12 314.84L541.12 282.84C556.96 282.3 565.15 274.11 565.69 258.27L597.69 290.27ZM541.12 346.84C525.28 347.38 517.09 355.57 516.55 371.41L484.55 339.41C500.39 338.87 508.58 330.68 509.12 314.84L541.12 346.84ZM484.55 403.41C468.71 403.95 460.527 412.147 460 428L428 396C443.84 395.46 452.03 387.27 452.57 371.43L484.55 403.41ZM428 460C412.16 460.54 403.97 468.73 403.43 484.57L371.43 452.57C387.257 452.017 395.447 443.827 396 428L428 460Z" fill="url(#paint1_linear_1_512)"/>
</g>
<defs>
<linearGradient id="paint0_linear_1_512" x1="394.109" y1="392.516" x2="122.579" y2="120.986" gradientUnits="userSpaceOnUse">
<stop stop-color="#0EBDDD"/>
<stop offset="1" stop-color="#0FB1CD"/>
</linearGradient>
<linearGradient id="paint1_linear_1_512" x1="507.109" y1="392.516" x2="235.579" y2="120.986" gradientUnits="userSpaceOnUse">
<stop stop-color="#0EB781"/>
<stop offset="1" stop-color="#07E398"/>
</linearGradient>
<clipPath id="clip0_1_512">
<rect width="629.69" height="516.55" fill="white"/>
</clipPath>
</defs>
</svg>
