<svg id="Layer_1" data-name="Layer 1" xmlns="http://www.w3.org/2000/svg" viewBox="0 0 510.23 511.21"><defs><style>.cls-1{fill:#665c78;}.cls-2{fill:#fe2b5c;}.cls-3{fill:#4caff4;}.cls-4{fill:#fed357;}.cls-5{fill:#e52651;}.cls-6{fill:#45a2e5;}.cls-7{fill:#febc51;}.cls-8{fill:#574c68;}.cls-9{fill:#605672;}.cls-10{fill:#aae5fe;}.cls-11{fill:#7fd0f4;}.cls-12{fill:#4f455c;}.cls-13{fill:#fd2b5c;}.cls-14{fill:#fc2b5c;}</style></defs><path class="cls-1" d="M3251.51,1473.77c1.34,2,.78,4.2.78,6.31,0,38.27.1,76.53-.07,114.8,0,4.17,1.1,5.32,5.23,5.19,11.28-.35,22.57-.27,33.85-.3,1.78,0,3.68-.46,5.3.76-1.62,2-3.9,1.58-6,1.62-5.94.1-11.88,0-17.83,0,5.83,10,5,20.3,2.52,30.72-17-1.39-34.1-.48-51.16-.66-7.87-.09-9,1.11-9,8.9,0,14-.07,27.92,0,41.87,0,7.15.9,8,8.14,8,14.26,0,28.52,0,42.78,0,3,0,5.91-.78,8.9-.78,3.48,5.62,2.43,24.62-1.6,29.45a8.14,8.14,0,0,1-5,3c-1.28.56-2.82-.24-4,.76h-72.73c-7.11-3.88-8.88-10.07-8.81-17.85.28-29.73.1-59.47.11-89.21,0-12,4.56-16.43,16.58-16.49,12.59-.07,25.18-.2,37.77-.31,1.81-1.45,4-1.46,6.13-1.56,6-.29,6.28-.54,6.38-6.74,0-2.15,0-4.31,0-6.47q0-51.3,0-102.59C3249.87,1479.4,3249.17,1476.26,3251.51,1473.77Z" transform="translate(-2796 -1212.31)"/><path class="cls-2" d="M2850.16,1336.08l-38.29-.23c-11-.06-15.73-4.71-15.73-15.69,0-30.25.2-60.51-.14-90.75-.08-7.8,2-13.55,9.11-17.1h74.72c7.32,2.73,10.11,6.53,10.36,14.38.15,4.62.18,9.25,0,13.87-.09,2,.33,4.52-2.7,5.06a48.78,48.78,0,0,0-9.88-.83c-14.07,0-28.15,0-42.22.06-5.77.05-6.7,1-6.74,6.68-.12,15.1-.09,30.2,0,45.3,0,5.44,1.06,6.63,6.32,6.69,15.39.19,30.79.13,46.19,0,2.18,0,4.21-.91,6.37-1,2.34.48,2.57,2.42,2.65,4.22a107.9,107.9,0,0,1-.13,16.38c-.51,4.6-2.39,8.55-6.09,10.73a208.83,208.83,0,0,1,22.85-.13,3.83,3.83,0,0,1,3.07,1.39c-1.73,1.41-3.79.83-5.71.84-13,.07-26,0-39,.07A16.22,16.22,0,0,1,2850.16,1336.08Z" transform="translate(-2796 -1212.31)"/><path class="cls-3" d="M2805.11,1723.52c-7.06-3.58-9.19-9.33-9.11-17.15.34-30.6.13-61.21.15-91.82,0-9.38,5-14.56,14.35-14.6q47.55-.2,95.1-.18c1.45,0,3-.31,4.25.87a3.86,3.86,0,0,1-3.07,1.39,227.57,227.57,0,0,1-22.81-.11c3.42,2,5.36,5.69,5.93,10,.78,5.77.47,11.6.2,17.4-.07,1.65-.4,3.37-2.46,3.87-17.83-2-35.72-.62-53.58-.85-3.57,0-5.45,1.79-5.46,5.55,0,15.93-.09,31.87.05,47.8,0,3.09,1.24,5.22,4.63,5.19,18-.15,36.09,1,54.1-.67,2.56.2,2.65,2.26,2.72,4a118.32,118.32,0,0,1-.11,17.36c-.65,6.17-4,10.34-10.16,12Z" transform="translate(-2796 -1212.31)"/><path class="cls-4" d="M3296.54,1335.26c-1.79,1.31-3.85.79-5.8.79q-45.82,0-91.64-.13c-11.43,0-16.09-4.91-16.24-16.56-.16-12.46.55-24.93-.4-37.39a4.21,4.21,0,0,1-.87-1.56c-.16-4.7-1.51-9.49,1.11-14,.06-11.93.4-23.88.08-35.8-.2-7.88,1.5-14.37,8.88-18.33h74.72c7.68,2.6,10.27,6.18,10.4,14.56.07,4.27.13,8.55-.05,12.82-.09,2.08,0,4.42-2.66,5.25-16.9-.25-33.8-.11-50.7-.11-7.27,0-8.18.86-8.21,7.89q-.12,21.43,0,42.85c0,6.64,1.33,8,7.88,8,14.58.1,29.16,0,43.75,0,2.51,0,4.91-.72,7.39-.87,2.79.79,2.5,3.22,2.58,5.26.2,4.78.08,9.57.06,14.36a14.43,14.43,0,0,1-5.27,11.39c6.37-.23,12.69-.15,19-.1C3292.66,1333.67,3294.91,1333.37,3296.54,1335.26Z" transform="translate(-2796 -1212.31)"/><path class="cls-5" d="M2888,1245.23a74,74,0,0,0,.15-23.06c-.64-4.93-4.89-7.13-8.33-9.86h30.88c6.92,3.67,9.07,9.47,9,17.2-.29,30.52-.1,61-.12,91.57,0,7.93-3,12.11-9.75,14.11h-28.57c10.94-9.4,7.49-21,6.59-32a6.81,6.81,0,0,1-.69-3.86c.1-16.59.06-33.19,0-49.78C2887.19,1248.06,2887,1246.53,2888,1245.23Z" transform="translate(-2796 -1212.31)"/><path class="cls-6" d="M2887.89,1632.64c.85-11.06,4.31-22.62-6.62-32h28.58c6.43,1.87,9.66,6.07,9.73,13,.12,12.7.13,25.4.18,38.1a17.42,17.42,0,0,1,0,15c-.05,13.22-.41,26.45,0,39.66.21,7.71-2.14,13.47-9,17.15h-30.88c7.3-4.16,9.92-10.53,9-18.71-.54-4.72.81-9.55-.75-14.23-1-1.29-.86-2.82-.86-4.3,0-16.59.06-33.19,0-49.79A6.53,6.53,0,0,1,2887.89,1632.64Z" transform="translate(-2796 -1212.31)"/><path class="cls-7" d="M3274.29,1244.29a55.73,55.73,0,0,0,.1-23.74c-.82-4.26-4.84-6-8-8.24h31.88a11.12,11.12,0,0,1,8,8v106.84c-2.54,3.53-4.62,7.63-9.7,8.13h-28.07c10.76-9.67,6.3-21.23,6.17-32-.94-1.12-.87-2.48-.87-3.79,0-17.41.08-34.83-.05-52.24A5.57,5.57,0,0,1,3274.29,1244.29Z" transform="translate(-2796 -1212.31)"/><path class="cls-8" d="M3275.18,1633c.06-7,.14-13.91.16-20.87,0-4.72-3-7.76-7.49-11.57h28.75c5.05.54,7.07,4.67,9.63,8.17v105.83a10.62,10.62,0,0,1-9,9h-29.89c-.33-.22-.44-.45-.33-.67s.22-.33.33-.33c5.55-2.5,8.09-6.83,8-12.89-.11-6.4-.08-12.81-.1-19.22-1.66-1.75-1.49-4-1.5-6.1q-.08-22.61,0-45.21C3273.78,1637,3273.61,1634.76,3275.18,1633Z" transform="translate(-2796 -1212.31)"/><path class="cls-9" d="M3267.38,1722.52v1h-3C3265.11,1722.35,3266.28,1722.55,3267.38,1722.52Z" transform="translate(-2796 -1212.31)"/><path class="cls-10" d="M3091,1383c8.6,0,17.19,0,25.79.07,1.76,0,3.67-.5,5.21.91a3.9,3.9,0,0,1-3.09,1.37c-7.28.24-14.57.35-21.47,0a12.87,12.87,0,0,1,7,7.74c2.58,6.89,2.25,14.06,1.75,21.21-.1,1.45-.52,3-2.58,3a33.28,33.28,0,0,0-11.73-1.75q-40.8.09-81.62,0c-1.82,0-3.64,0-5.46.17-3.51.33-5.4,2.22-5.69,5.75-.13,1.66-.14,3.32-.14,5v82.79c0,.84,0,1.67,0,2.5.19,6.74,1.64,8.24,8.2,8.47,1,0,2,0,3,0q41.06,0,82.12,0a31.38,31.38,0,0,0,11.22-1.74c2.33,0,2.63,1.78,2.73,3.38.42,6.61.68,13.23-1.36,19.66-1.3,4.08-3.64,7.35-7.61,9,6.94-.48,14.06-.28,21.17-.13a4.37,4.37,0,0,1,3.56,1.41c-5.8,2.08-11.8.76-17.69.86-13.24.24-13.23.08-13.25,13.16,0,9.49-.07,19-.1,28.45-3.25-.73-2.32-3.51-2.36-5.47-.21-9.93-.09-19.87-.09-29.8,0-3.47-.94-5.7-5-5.72-4.81,0-5.78.64-5.84,5.67-.12,9.61.07,19.21-.12,28.81,0,2.08.8,4.82-2.29,5.82-.08-12.27-.31-24.54-.14-36.81.06-3.92-1-5.13-5-5-10.75.26-21.52.07-32.28.11-1.6,0-3.35-.47-4.69.94-1.89.92-3.9.53-5.87.54-7.05,0-7.36.26-7.38,7.17,0,12.44,0,24.89,0,37.33,0,15.6.06,31.19-.07,46.79,0,2.4,1,5.42-2.34,6.79q-.06-46.37-.1-92.73c0-6.85,0-6.85-7.07-6.85-8.79,0-17.58,0-26.37,0-10.56-.06-16.46-6-16.52-16.76,0-7.32-.13-14.63,0-21.94.08-3.18-.82-4.48-4.18-4.34-4.8.22-9.61,0-14.42-.07.3-2.66,2.52-2.09,4.09-2.26a78.06,78.06,0,0,1,8.92-.13c4.22.05,4.11-2.81,4.15-5.76s-.4-5.29-4.18-5.23a73.54,73.54,0,0,1-8.91-.12c-1.56-.16-3.76.37-4-2.28,4.95,0,9.89-.08,14.84-.15,1.62,0,3.67.29,3.58-2.2-.37-10.21,1.16-20.46-.81-30.62-.57-5-.92-10,0-15,1.4-1.57.81-3.48.82-5.25.05-13.11,0-26.22,0-39.33.05-10.3,6.08-16.34,16.35-16.4,9.44,0,18.88-.19,28.32.07,4,.11,5.48-1,5.37-5.22-.27-11.11-.06-22.24,0-33.36,3.36.75,2.26,3.61,2.31,5.57.23,8.47,0,16.94.12,25.41.05,5.55.53,5.93,5.92,6.09,2.46.07,5-.56,7.38.47,1.51,1.51,3.43.92,5.18.93,12.22.07,24.44.08,36.66.1,4.32-2.65,9.13-.7,13.66-1.45l.81-.08A2.53,2.53,0,0,1,3091,1383Z" transform="translate(-2796 -1212.31)"/><path class="cls-11" d="M3104.32,1417a55.77,55.77,0,0,0-.75-22.58c-1.12-4.65-5-7.18-9.88-10.44H3122c8.84,1.91,13.41,7.79,13.71,18,.18,6,.34,12-.06,17.94-.31,4.69.94,6.3,5.92,6.17,12.59-.31,25.19,0,37.79.1-1,3.11-3.77,2.16-5.82,2.2-10.26.19-20.53.13-30.79.06-3.7,0-5.48,1.29-5.36,5.22.14,4.72.67,5.59,5.36,5.65,10.27.12,20.53-.07,30.79.12,2,0,4.8-.91,5.82,2.2-12.87.08-25.74.28-38.61.14-3.74,0-5.31.78-5.09,4.9.37,7.1.18,14.22.23,21.33a16.44,16.44,0,0,1,0,14.9c0,16.61,0,33.23-.14,49.84-.07,10.9-4.6,17.07-13.73,19h-28c13.8-8.43,11.08-21,10.29-33-1.32-1.95-.93-4.16-.93-6.29v-89.25C3103.39,1421.16,3103,1418.94,3104.32,1417Z" transform="translate(-2796 -1212.31)"/><path class="cls-12" d="M3135.86,1483q0-7.45,0-14.9l106,0c4.3,0,8.44.41,9.6,5.74q-.06,59.09-.13,118.18c0,8.78,1,7.69-7.6,7.77-2.16,0-4.32,0-6.47-.06,0-37.08-.1-74.17.07-111.26,0-4.35-1-5.54-5.44-5.51C3199.92,1483.09,3167.89,1483,3135.86,1483Z" transform="translate(-2796 -1212.31)"/><path class="cls-12" d="M3017.48,1651.45c1.58-1.51.72-3.44.73-5.14.06-29.67.12-59.35-.05-89,0-4.09,1-5.77,5.18-5.17,3.25.46,6.62-.62,9.81.72q0,50.89-.05,101.81c0,10.23-1.88,12.08-12.25,12.08H2919.76v-15q46.14,0,92.29,0C3013.86,1651.73,3015.67,1651.55,3017.48,1651.45Z" transform="translate(-2796 -1212.31)"/><path class="cls-12" d="M3075.26,1593.62c1-11.75.48-23.53.32-35.28-.07-5,1.19-6.6,6.3-6.32,8.36.45,8.38.12,8.38,8.62,0,9.64,0,19.27,0,28.91,0,1.59-.62,3.33.66,4.77,15.1,7.18,17.38,21.19,12.77,31.3-4.11,9-13.27,14-23.56,13-9.28-.89-17.32-8.3-19.5-18-2-9.11,2.17-18.88,10.26-24.09C3072.38,1595.65,3074.49,1595.6,3075.26,1593.62Z" transform="translate(-2796 -1212.31)"/><path class="cls-12" d="M2966.57,1445a40,40,0,0,1,0,15L2862,1460c-9.64,0-11.8-2.11-11.8-11.59q0-56.14,0-112.29l14.94,0c0,34.73.05,69.45-.08,104.18,0,3.56.65,4.82,4.56,4.8C2901.91,1444.89,2934.24,1445,2966.57,1445Z" transform="translate(-2796 -1212.31)"/><path class="cls-12" d="M3182.7,1266.44c.2,5,.72,9.91-.26,14.84-1.75.77-3.6.38-5.4.38q-40.5,0-81,0c-5.51,0-5.51,0-5.52,5.71q0,45.08,0,90.15a25,25,0,0,1-.2,5.46.39.39,0,0,0-.33.4c-3.82.28-7.64,0-11.45.15-2.1.08-3.11-.7-2.93-2.88.08-1,0-2,0-3V1274.34a7.52,7.52,0,0,1,.2-1.95c1.62-5.45,6-6,10.66-6Q3134.59,1266.46,3182.7,1266.44Z" transform="translate(-2796 -1212.31)"/><path class="cls-12" d="M3033.15,1383c-4.21,1.41-8.54.46-12.81.62-2.65.1-2.06-2.07-2.07-3.61,0-10,0-19.92-.06-29.88,0-1.56.74-3.34-.79-4.67-17.13-7.63-18.9-27.48-7.49-38.14,6.9-6.45,15.18-8.11,24-4.59,8.33,3.33,13.33,9.75,14.23,18.81,1,9.7-2.94,17.3-11.32,22.09-2.91,1.66-3.84,3.27-3.78,6.47C3033.23,1361.06,3033.13,1372,3033.15,1383Z" transform="translate(-2796 -1212.31)"/><path class="cls-11" d="M3075.7,1273.32q.06,51.72.11,103.44c0,6.59,0,6.58,6.73,6.59,2.48,0,5,0,7.44.05-4.95,1.49-10,.36-15,.63q0-52.18.12-104.37c0-2.14.18-4.29.27-6.44Z" transform="translate(-2796 -1212.31)"/><path class="cls-10" d="M3075.7,1273.32l-.32-.1c.15-.27.29-.55.43-.83A.87.87,0,0,1,3075.7,1273.32Z" transform="translate(-2796 -1212.31)"/><path class="cls-12" d="M2948.92,1493c4.86,1.28,9.82.39,14.73.52,2.51.06,3.41.8,3.55,3.42.61,11.21.7,11.14-10.6,11.25-2.57,0-5.25-.79-7.73.59-.68,1.12-1.38,2.23-2,3.37a22.56,22.56,0,0,1-26,10.69,22.8,22.8,0,0,1,.57-44.06,22.52,22.52,0,0,1,25.47,10.87C2947.52,1490.74,2948.23,1491.85,2948.92,1493Z" transform="translate(-2796 -1212.31)"/><path class="cls-12" d="M3179.35,1441.69c-11.51-1.21-23.06-.29-34.59-.5-9.07-.16-8.87,0-9.12-9.22-.11-4.06.92-5.42,5.16-5.31,11.24.31,22.5.13,33.75.08,1.6,0,3.3.54,4.8-.51,4-6.6,8.45-12.51,16.62-14.42a22.84,22.84,0,1,1-13.76,34.42C3181.24,1444.73,3181,1442.74,3179.35,1441.69Z" transform="translate(-2796 -1212.31)"/><path class="cls-11" d="M3090.31,1383c0-32.55,0-65.11-.2-97.66,0-3.92,1.79-4.14,4.83-4.13q43.76.12,87.5.07a1,1,0,0,1,0,.7c-28.66,0-57.32.12-86,0-4.23,0-5.67.88-5.64,5.44.22,31.87.13,63.75.14,95.62l-.34,0Z" transform="translate(-2796 -1212.31)"/><path class="cls-2" d="M3275.18,1633l.09,57.44c-1.71,1.85-3.84,2.24-6.3,2.23-16.26-.07-32.53-.15-48.79,0-4.82,0-6.52-2.06-6.5-6.58q.09-24.45,0-48.89c0-4.35,1.94-6.44,6.31-6.43q24.64.06,49.29,0A8.48,8.48,0,0,1,3275.18,1633Z" transform="translate(-2796 -1212.31)"/><path class="cls-1" d="M2888,1245.23c.82,2.23.67,4.56.67,6.88q0,22.37,0,44.73c0,2.15.07,4.3-.83,6.34-1.88,1.59-4.07,1.9-6.48,1.89-15.73-.06-31.46,0-47.19,0-6.2,0-7.19-1-7.2-7.25q0-23.9,0-47.79c0-5.87.85-6.75,6.53-6.76,16.23,0,32.46,0,48.69,0C2884.41,1243.21,2886.57,1243.15,2888,1245.23Z" transform="translate(-2796 -1212.31)"/><path class="cls-2" d="M2887.89,1632.64a29,29,0,0,1,.69,4.37q.08,24.83,0,49.66a30.81,30.81,0,0,1-.52,3.91c-1.49,2-3.59,2.06-5.81,2.05-16.4,0-32.81-.09-49.21,0-4.52,0-6.16-1.85-6.13-6.28q.2-24.66,0-49.31c0-4.53,1.91-6.28,6.25-6.26q24.6.09,49.2,0A8.39,8.39,0,0,1,2887.89,1632.64Z" transform="translate(-2796 -1212.31)"/><path class="cls-2" d="M3274.29,1244.29a8.81,8.81,0,0,1,1.1,4.76c0,16.59,0,33.19,0,49.78a26.64,26.64,0,0,1-.71,4.38c-1.68,1.65-3.78,1.84-6,1.84-15.93,0-31.85,0-47.77,0-5.65,0-7.14-1.46-7.15-7q-.06-23.94,0-47.87c0-5.84,1.15-6.91,7-6.91q23.89,0,47.77,0C3270.52,1243.22,3272.53,1243.08,3274.29,1244.29Z" transform="translate(-2796 -1212.31)"/><path class="cls-2" d="M3104.32,1417c.11,3.3.32,6.61.32,9.91q0,42.73,0,85.48c0,2.15-.21,4.29-.32,6.44-1.52,2.51-4,2.67-6.54,2.67q-46.56,0-93.13,0c-5.74,0-6.91-1.23-6.92-7.15q0-46.42,0-92.83c0-5.92,1.18-7.15,6.92-7.15q46.57-.06,93.13,0C3100.34,1414.32,3102.8,1414.48,3104.32,1417Z" transform="translate(-2796 -1212.31)"/><path class="cls-13" d="M3082.92,1608.26c4.27,0,8.08,3.75,8,7.81a7.88,7.88,0,0,1-15.75.19A8.07,8.07,0,0,1,3082.92,1608.26Z" transform="translate(-2796 -1212.31)"/><path class="cls-13" d="M3025.5,1331.78a8.17,8.17,0,0,1-7.84-7.51,8.06,8.06,0,0,1,7.62-8.14,7.74,7.74,0,0,1,8,7.67A8,8,0,0,1,3025.5,1331.78Z" transform="translate(-2796 -1212.31)"/><path class="cls-13" d="M2926.84,1508.73c-4.09,0-7.71-3.94-7.61-8.2a8.11,8.11,0,0,1,7.7-7.6,7.9,7.9,0,0,1-.09,15.8Z" transform="translate(-2796 -1212.31)"/><path class="cls-14" d="M3201.62,1441.86a7.89,7.89,0,1,1,0-15.78,8.47,8.47,0,0,1,7.8,7.64C3209.58,1437.73,3205.65,1441.82,3201.62,1441.86Z" transform="translate(-2796 -1212.31)"/></svg>